<svg width="414" height="896" viewBox="0 0 414 896" fill="none" xmlns="http://www.w3.org/2000/svg">
  <defs>
    <linearGradient id="mainMenuGradient" x1="0%" y1="0%" x2="100%" y2="100%">
      <stop offset="0%" style="stop-color:#667eea;stop-opacity:1" />
      <stop offset="50%" style="stop-color:#764ba2;stop-opacity:1" />
      <stop offset="100%" style="stop-color:#f093fb;stop-opacity:1" />
    </linearGradient>
    <radialGradient id="overlayGradient" cx="50%" cy="50%" r="50%">
      <stop offset="0%" style="stop-color:#ffffff;stop-opacity:0.1" />
      <stop offset="100%" style="stop-color:#000000;stop-opacity:0.2" />
    </radialGradient>
    <pattern id="gridPattern" width="60" height="60" patternUnits="userSpaceOnUse">
      <path d="M 60 0 L 0 0 0 60" fill="none" stroke="#ffffff" stroke-width="1" opacity="0.1"/>
    </pattern>
  </defs>
  
  <!-- Main background gradient -->
  <rect width="414" height="896" fill="url(#mainMenuGradient)"/>
  
  <!-- Overlay gradient -->
  <rect width="414" height="896" fill="url(#overlayGradient)"/>
  
  <!-- Grid pattern -->
  <rect width="414" height="896" fill="url(#gridPattern)"/>
  
  <!-- Decorative circles -->
  <circle cx="50" cy="150" r="30" fill="#ffffff" opacity="0.1"/>
  <circle cx="364" cy="200" r="25" fill="#ffffff" opacity="0.08"/>
  <circle cx="80" cy="700" r="40" fill="#ffffff" opacity="0.06"/>
  <circle cx="334" cy="750" r="35" fill="#ffffff" opacity="0.1"/>
  
  <!-- Fuel pump icon -->
  <g transform="translate(157, 300)" opacity="0.15">
    <rect x="0" y="0" width="100" height="200" rx="10" fill="#ffffff"/>
    <rect x="10" y="20" width="80" height="160" rx="5" fill="#667eea"/>
    <circle cx="50" cy="60" r="15" fill="#ffffff"/>
    <rect x="45" y="80" width="10" height="80" fill="#ffffff"/>
    <rect x="35" y="160" width="30" height="20" rx="5" fill="#ffffff"/>
  </g>
  
  <!-- Abstract shapes -->
  <path d="M 0 400 Q 100 350 200 400 T 414 400 L 414 500 Q 300 450 200 500 T 0 500 Z" fill="#ffffff" opacity="0.05"/>
  <path d="M 0 600 Q 150 550 250 600 T 414 600 L 414 700 Q 300 650 250 700 T 0 700 Z" fill="#ffffff" opacity="0.03"/>
  
  <!-- Floating elements -->
  <g transform="translate(50, 100)" opacity="0.2">
    <circle cx="0" cy="0" r="8" fill="#ffffff"/>
    <circle cx="20" cy="10" r="6" fill="#ffffff"/>
    <circle cx="40" cy="5" r="10" fill="#ffffff"/>
  </g>
  
  <g transform="translate(300, 800)" opacity="0.15">
    <circle cx="0" cy="0" r="12" fill="#ffffff"/>
    <circle cx="25" cy="15" r="8" fill="#ffffff"/>
    <circle cx="50" cy="8" r="15" fill="#ffffff"/>
  </g>
</svg> 